<svg width="396" height="340" viewBox="0 0 396 340" fill="none" xmlns="http://www.w3.org/2000/svg">
<path d="M-1.52588e-05 73.3816L153.732 339.654L197.034 314.654L43.3013 48.3816L-1.52588e-05 73.3816Z" fill="#262626"/>
<path d="M241.344 339.682L395.01 73.5256L351.708 48.5256L198.043 314.682L241.344 339.682Z" fill="#262626"/>
<path d="M201.043 340H241.043V291H201.043V340Z" fill="#262626"/>
<path d="M155.043 340H195.043V291H155.043V340Z" fill="#262626"/>
<path d="M394.519 73.0619L375.832 41.1721L333.556 65.9456L352.243 97.8354L394.519 73.0619Z" fill="#262626"/>
<path d="M371.006 31.8898L352.318 0L310.042 24.7735L328.729 56.6633L371.006 31.8898Z" fill="#262626"/>
<path d="M352.043 0L302.043 0V49L352.043 49V0Z" fill="#262626"/>
<path d="M19.5131 41.0725L0.767578 73.0618L43.0437 97.8353L61.7892 65.846L19.5131 41.0725Z" fill="#262626"/>
<path d="M42.7885 -2.25657e-05L24.043 31.9893L66.3191 56.7628L85.0646 24.7735L42.7885 -2.25657e-05Z" fill="#262626"/>
<path d="M93.043 0L43.043 0L43.043 49L93.043 49V0Z" fill="#262626"/>
<path d="M194.712 0H103.438V12.4902H194.712V0Z" fill="#262626"/>
<path d="M141.241 1.08399L102.916 39.4087L110.771 47.2637L149.096 8.93902L141.241 1.08399Z" fill="#262626"/>
<path d="M114.006 39.3921H103.438V47.0784H114.006V39.3921Z" fill="#262626"/>
<path d="M292.712 0H201.438V12.4902H292.712V0Z" fill="#262626"/>
<path d="M194.713 21.1373V12.4902H183.184V17.6496L187.648 21.1373H194.713Z" fill="#262626"/>
<path d="M261.967 20.1765V28.8236H251.398V23.6642L255.488 20.1765H261.967Z" fill="#262626"/>
<path d="M250.503 29.541L268.943 47.9814L276.798 40.1264L258.358 21.6859L250.503 29.541Z" fill="#262626"/>
<path d="M269.654 49H292.713V36.5098H269.654V49Z" fill="#262626"/>
<path d="M234.104 20.1765V28.8236H243.711V23.6642L239.991 20.1765H234.104Z" fill="#262626"/>
<path d="M235.89 21.6865L217.449 40.127L225.304 47.982L243.745 29.5415L235.89 21.6865Z" fill="#262626"/>
<path d="M226.418 36.5098H201.438V49H226.418V36.5098Z" fill="#262626"/>
<path d="M162.045 20.1765V28.8236H152.438V23.6642L156.156 20.1765H162.045Z" fill="#262626"/>
<path d="M151.856 29.5424L170.297 47.9829L178.152 40.1279L159.711 21.6874L151.856 29.5424Z" fill="#262626"/>
<path d="M169.732 49H194.713V36.5098H169.732V49Z" fill="#262626"/>
</svg>
