<svg id="Lager_1" data-name="Lager 1" xmlns="http://www.w3.org/2000/svg" viewBox="0 0 346.48 399.95"><defs><style>.cls-1{fill:#058282;}.cls-2{fill:none;}.cls-3{fill:#fff;}</style></defs><title>logo-vit</title><path class="cls-1" d="M201,0c13.84,8.19,27.62,16.49,41.54,24.55q63.22,36.62,126.58,73c2.92,1.67,4.11,3.49,4.1,7q-.18,95.43,0,190.86c0,3.5-1.18,5.31-4.1,7q-81,46.68-162,93.54c-2.12,1.22-4.1,2.69-6.15,4h-2c-14.14-8.35-28.22-16.79-42.42-25q-62.79-36.37-125.7-72.56c-2.93-1.68-4.11-3.48-4.11-7q.2-95.44,0-190.87c0-3.51,1.19-5.36,4.09-7Q100,57.74,169.11,17.81C179.17,12,189.05,6,199,0ZM35.48,199.92c0,29.82.09,59.65-.11,89.47,0,4.28,1.44,6.43,5,8.5Q117.82,342.42,195,387.33c3.93,2.3,6.6,1.93,10.25-.19q77.65-45.13,155.48-90c2.86-1.64,3.86-3.38,3.85-6.64q-.15-90.46,0-180.94c0-3.51-1.21-5.24-4.17-7Q282.61,57.84,205,12.69c-3.59-2.09-6.09-2.26-9.8-.1q-77.61,45.19-155.47,90c-3.17,1.82-4.32,3.75-4.3,7.39C35.54,139.94,35.48,169.93,35.48,199.92Z" transform="translate(-26.74)"/><path class="cls-2" d="M35.48,199.92c0-30,.06-60-.09-90,0-3.64,1.13-5.57,4.3-7.39q77.84-44.81,155.47-90c3.71-2.16,6.21-2,9.8.1q77.62,45.17,155.47,90c3,1.71,4.18,3.44,4.17,7q-.17,90.48,0,180.94c0,3.26-1,5-3.85,6.64q-77.82,44.83-155.48,90c-3.65,2.12-6.32,2.49-10.25.19q-77.16-45-154.61-89.44c-3.59-2.07-5.06-4.22-5-8.5C35.57,259.57,35.48,229.74,35.48,199.92Zm134.09,16.4a20.07,20.07,0,0,1,1.73-1.16c16.63-7.46,23.34-18.88,21.65-36.83-1.42-15-11.1-26.19-27.61-29.27-10.36-1.93-21.16-1.62-31.77-2-7.42-.27-14.86,0-22.22,0V251.72h11V218.39h33.81c.33,0,.77-.2,1,0,1.27.89,2.81,1.63,3.68,2.84,6,8.2,11.81,16.5,17.69,24.78,4.75,6.68,7.35,7.56,15.85,5.2Zm114.18-61.83C276.8,152,270.47,149,263.8,147.6c-14-2.95-27.91-2.82-40.41,5.52-16.48,11-15,35.67,2.67,44.38,4.88,2.4,10.25,3.8,15.44,5.54,9.25,3.11,19,5.14,27.66,9.45,9.61,4.8,10.18,17.51,1.79,24.29A27.14,27.14,0,0,1,259.89,242c-16.84,3.56-32.3.26-45.79-10.8-5.45,8.85-6.58,8.29,2.68,13.51,17.31,9.78,35.74,11.28,54.28,3.82,10.19-4.09,16.36-12.16,16.51-23.48.15-10.73-4.68-19-14.83-23.3-5.33-2.26-10.91-4-16.43-5.72-7.89-2.52-16-4.44-23.71-7.45-6.14-2.4-9.73-7.39-9.59-14.42s3.59-12.52,9.89-14.86a61.28,61.28,0,0,1,18.37-3.52c10.14-.45,19.46,3.15,28.27,8.41C280.84,161.2,282,158.63,283.75,154.49Z" transform="translate(-26.74)"/><path class="cls-3" d="M169.57,216.32l24.75,34.83c-8.5,2.36-11.1,1.48-15.85-5.2-5.88-8.28-11.71-16.58-17.69-24.78-.87-1.21-2.41-1.95-3.68-2.84-.21-.15-.65,0-1,0H122.31v33.33h-11V147c7.36,0,14.8-.22,22.22,0,10.61.4,21.41.09,31.77,2,16.51,3.08,26.19,14.26,27.61,29.27,1.69,17.95-5,29.37-21.65,36.83A20.11,20.11,0,0,0,169.57,216.32Zm-47.24-6.61c13.45-.59,26.62-.35,39.56-2,12.38-1.56,19.8-11.11,20.16-23,.42-13.9-5.82-24.25-18.53-26.27-13.45-2.14-27.28-1.85-41.19-2.64Z" transform="translate(-26.74)"/><path class="cls-3" d="M283.75,154.49c-1.79,4.14-2.91,6.71-4.21,9.69-8.81-5.26-18.13-8.86-28.27-8.41a61.28,61.28,0,0,0-18.37,3.52c-6.3,2.34-9.74,7.8-9.89,14.86s3.45,12,9.59,14.42c7.7,3,15.82,4.93,23.71,7.45,5.52,1.77,11.1,3.46,16.43,5.72,10.15,4.32,15,12.57,14.83,23.3-.15,11.32-6.32,19.39-16.51,23.48-18.54,7.46-37,6-54.28-3.82-9.26-5.22-8.13-4.66-2.68-13.51,13.49,11.06,29,14.36,45.79,10.8A27.25,27.25,0,0,0,271,236.78c8.39-6.78,7.82-19.49-1.79-24.29-8.64-4.31-18.41-6.34-27.66-9.45-5.19-1.74-10.56-3.14-15.44-5.54-17.69-8.71-19.15-33.4-2.67-44.38,12.5-8.34,26.42-8.47,40.41-5.52C270.47,149,276.8,152,283.75,154.49Z" transform="translate(-26.74)"/></svg>