<svg width="30" height="36" viewBox="0 0 30 36" fill="none" xmlns="http://www.w3.org/2000/svg">
<g clip-path="url(#clip0_208_82)">
<path d="M0.373427 35.841C0.289827 35.8409 0.209689 35.8144 0.150597 35.7673C0.0915045 35.7201 0.0582833 35.6563 0.0582218 35.5896V0.297736C0.0570774 0.264165 0.0643869 0.230751 0.0797186 0.199469C0.0950504 0.168186 0.118093 0.139669 0.147487 0.115602C0.17688 0.0915347 0.212028 0.072405 0.250854 0.0593428C0.289681 0.0462806 0.331399 0.0395508 0.373543 0.0395508C0.415688 0.0395508 0.457405 0.0462806 0.496232 0.0593428C0.535058 0.072405 0.570206 0.0915347 0.5996 0.115602C0.628993 0.139669 0.652036 0.168186 0.667368 0.199469C0.6827 0.230751 0.690009 0.264165 0.688865 0.297736V35.5896C0.688803 35.6563 0.65555 35.7202 0.596407 35.7673C0.537265 35.8144 0.457067 35.841 0.373427 35.841Z" fill="white"/>
<path d="M0.373233 0.0926842C0.44145 0.0927332 0.506855 0.114349 0.555091 0.152787C0.603328 0.191224 0.630454 0.243343 0.630515 0.297702V35.5896C0.631551 35.617 0.625665 35.6444 0.613207 35.6699C0.600749 35.6955 0.581972 35.7188 0.55799 35.7385C0.534008 35.7582 0.505308 35.7739 0.473591 35.7846C0.441875 35.7953 0.407788 35.8008 0.37335 35.8008C0.338912 35.8008 0.304825 35.7953 0.273108 35.7846C0.241392 35.7739 0.212691 35.7582 0.188709 35.7385C0.164726 35.7188 0.14595 35.6955 0.133492 35.6699C0.121034 35.6444 0.115149 35.617 0.116184 35.5896V0.297702C0.116246 0.243375 0.14334 0.191284 0.191526 0.152852C0.239712 0.11442 0.305057 0.0927823 0.373233 0.0926842ZM0.373233 0C0.27419 4.91427e-05 0.179225 0.0314357 0.109213 0.0872602C0.0392006 0.143085 -0.000127839 0.218778 -0.00012782 0.297702V35.5896C-0.00137153 35.6293 0.00736887 35.6688 0.0255788 35.7058C0.0437887 35.7428 0.0710995 35.7765 0.105903 35.8049C0.140707 35.8333 0.1823 35.8559 0.228231 35.8714C0.274162 35.8868 0.323504 35.8947 0.37335 35.8947C0.423195 35.8947 0.472537 35.8868 0.518468 35.8714C0.5644 35.8559 0.605992 35.8333 0.640796 35.8049C0.675599 35.7765 0.702911 35.7428 0.721121 35.7058C0.739331 35.6688 0.748071 35.6293 0.746827 35.5896V0.297702C0.746827 0.218746 0.707467 0.143025 0.637404 0.0871948C0.567342 0.0313649 0.472317 0 0.373233 0Z" fill="white"/>
<path d="M19.5597 19.4655C19.8925 19.4659 20.2115 19.5952 20.4468 19.8251C20.6822 20.0551 20.8145 20.3668 20.8149 20.6919V34.2097C20.8145 34.5348 20.6822 34.8465 20.4468 35.0764C20.2115 35.3064 19.8925 35.4357 19.5597 35.4361H5.71957C5.38677 35.4357 5.06772 35.3064 4.8324 35.0764C4.59707 34.8465 4.4647 34.5348 4.46431 34.2097V20.6919C4.4647 20.3668 4.59707 20.0551 4.8324 19.8251C5.06772 19.5952 5.38677 19.4659 5.71957 19.4655H19.5597ZM19.5597 18.89H5.71957C5.23043 18.89 4.76131 19.0799 4.41544 19.4178C4.06956 19.7557 3.87524 20.214 3.87524 20.6919V34.2097C3.87524 34.6876 4.06956 35.1459 4.41544 35.4838C4.76131 35.8217 5.23043 36.0116 5.71957 36.0116H19.5597C20.0488 36.0116 20.5179 35.8217 20.8638 35.4838C21.2097 35.1459 21.404 34.6876 21.404 34.2097V20.6919C21.404 20.214 21.2097 19.7557 20.8638 19.4178C20.5179 19.0799 20.0488 18.89 19.5597 18.89Z" fill="white"/>
<path d="M28.3416 0.268677H5.59041C4.79295 0.268677 4.14648 0.900274 4.14648 1.67939V14.3086C4.14648 15.0877 4.79295 15.7193 5.59041 15.7193H28.3416C29.139 15.7193 29.7855 15.0877 29.7855 14.3086V1.67939C29.7855 0.900274 29.139 0.268677 28.3416 0.268677Z" fill="white"/>
<path d="M28.3414 0.537414C28.6513 0.53777 28.9484 0.658202 29.1676 0.872293C29.3867 1.08638 29.51 1.37665 29.5103 1.67942V14.3087C29.51 14.6114 29.3867 14.9017 29.1676 15.1158C28.9484 15.3299 28.6513 15.4503 28.3414 15.4507H5.5903C5.2804 15.4503 4.9833 15.3299 4.76417 15.1158C4.54504 14.9017 4.42177 14.6114 4.42141 14.3087V1.67942C4.42177 1.37665 4.54504 1.08638 4.76417 0.872293C4.9833 0.658202 5.2804 0.53777 5.5903 0.537414H28.3414ZM28.3414 0H5.5903C5.1344 0 4.69718 0.176938 4.37481 0.491891C4.05244 0.806843 3.87134 1.23401 3.87134 1.67942V14.3087C3.87134 14.7541 4.05244 15.1812 4.37481 15.4962C4.69718 15.8111 5.1344 15.9881 5.5903 15.9881H28.3414C28.7973 15.9881 29.2346 15.8111 29.5569 15.4962C29.8793 15.1812 30.0604 14.7541 30.0604 14.3087V1.67942C30.0604 1.23401 29.8793 0.806843 29.5569 0.491891C29.2346 0.176938 28.7973 0 28.3414 0Z" fill="white"/>
</g>
<defs>
<clipPath id="clip0_208_82">
<rect width="30" height="36" fill="white"/>
</clipPath>
</defs>
</svg>
