<svg width="396" height="340" viewBox="0 0 396 340" fill="none" xmlns="http://www.w3.org/2000/svg">
<path d="M0.957016 73.3816L154.689 339.654L197.991 314.654L44.2583 48.3816L0.957016 73.3816Z" fill="white"/>
<path d="M242.301 339.682L395.967 73.5256L352.666 48.5256L199 314.682L242.301 339.682Z" fill="white"/>
<path d="M202 340H242V291H202V340Z" fill="white"/>
<path d="M156 340H196V291H156V340Z" fill="white"/>
<path d="M395.476 73.0619L376.789 41.1721L334.513 65.9456L353.2 97.8354L395.476 73.0619Z" fill="white"/>
<path d="M371.963 31.8898L353.275 0L310.999 24.7735L329.686 56.6633L371.963 31.8898Z" fill="white"/>
<path d="M353 0L303 0V49L353 49V0Z" fill="white"/>
<path d="M20.4701 41.0725L1.72461 73.0618L44.0008 97.8353L62.7462 65.846L20.4701 41.0725Z" fill="white"/>
<path d="M43.7455 -2.25657e-05L25 31.9893L67.2761 56.7628L86.0216 24.7735L43.7455 -2.25657e-05Z" fill="white"/>
<path d="M94 0L44 0L44 49L94 49V0Z" fill="white"/>
<path d="M195.669 0H104.395V12.4902H195.669V0Z" fill="white"/>
<path d="M142.198 1.08399L103.873 39.4087L111.728 47.2637L150.053 8.93902L142.198 1.08399Z" fill="white"/>
<path d="M114.963 39.3921H104.395V47.0784H114.963V39.3921Z" fill="white"/>
<path d="M293.669 0H202.395V12.4902H293.669V0Z" fill="white"/>
<path d="M195.67 21.1373V12.4902H184.141V17.6496L188.605 21.1373H195.67Z" fill="white"/>
<path d="M262.924 20.1765V28.8236H252.355V23.6642L256.446 20.1765H262.924Z" fill="white"/>
<path d="M251.46 29.541L269.9 47.9814L277.755 40.1264L259.315 21.6859L251.46 29.541Z" fill="white"/>
<path d="M270.611 49H293.67V36.5098H270.611V49Z" fill="white"/>
<path d="M235.061 20.1765V28.8236H244.668V23.6642L240.948 20.1765H235.061Z" fill="white"/>
<path d="M236.847 21.6865L218.406 40.127L226.261 47.982L244.702 29.5415L236.847 21.6865Z" fill="white"/>
<path d="M227.375 36.5098H202.395V49H227.375V36.5098Z" fill="white"/>
<path d="M163.002 20.1765V28.8236H153.395V23.6642L157.113 20.1765H163.002Z" fill="white"/>
<path d="M152.813 29.5424L171.254 47.9829L179.109 40.1279L160.668 21.6874L152.813 29.5424Z" fill="white"/>
<path d="M170.69 49H195.67V36.5098H170.69V49Z" fill="white"/>
</svg>
